<svg xmlns="http://www.w3.org/2000/svg" width="24" height="24" fill="none"><path fill="#B5C1CE" d="M12.534 16.217a.743.743 0 0 1-.53-.22.744.744 0 0 1 0-1.06l7.133-7.133a.744.744 0 0 1 1.06 0c.142.141.22.33.22.53s-.078.389-.22.53l-7.133 7.133a.744.744 0 0 1-.53.22Z"/><path fill="#B5C1CE" d="M3.92 22c-.514 0-.996-.2-1.359-.563a1.922 1.922 0 0 1 .003-2.714l2.874-2.869c-1.193-1.704-1.229-2.948-1.229-3.09a.625.625 0 0 1 1.25-.002c0 .003.04.907.88 2.192l.039-.038c.365-.366.575-.872.574-1.39v-.758c0-.165.066-.326.183-.442l8.583-8.583c.137-.137.306-.243.49-.306l4.12-1.372a1.265 1.265 0 0 1 .806 0c.665.223 1.025.945.801 1.61L20.573 7.79c-.064.189-.17.36-.308.496l-8.583 8.582a.62.62 0 0 1-.441.184h-.758c-.52 0-1.026.209-1.39.574l-.037.037c1.283.836 2.181.877 2.19.877a.626.626 0 0 1-.01 1.25c-.143 0-1.382-.04-3.083-1.226l-2.876 2.876A1.91 1.91 0 0 1 3.92 22Zm-.473-2.392a.67.67 0 0 0 .946.949l2.775-2.774a11.513 11.513 0 0 1-.945-.944l-2.776 2.769Zm3.66-3.654a10.738 10.738 0 0 0 .946.943l.154-.154a3.236 3.236 0 0 1 2.273-.941h.5l8.4-8.4 1.37-4.124c.003-.01-.004-.025-.013-.028H20.724l-4.117 1.372-8.405 8.405v.498a3.229 3.229 0 0 1-.941 2.276l-.153.153Z"/></svg>