<svg className="icon-battle" width="24" height="24" viewBox="0 0 24 24" fill="none" xmlns="http://www.w3.org/2000/svg">
<path d="M12.5342 16.217C12.3342 16.217 12.1452 16.139 12.0042 15.997C11.8622 15.855 11.7842 15.667 11.7842 15.467C11.7842 15.267 11.8622 15.078 12.0042 14.937L19.1372 7.80398C19.2792 7.66198 19.4672 7.58398 19.6672 7.58398C19.8672 7.58398 20.0562 7.66198 20.1972 7.80398C20.3392 7.94498 20.4172 8.13398 20.4172 8.33398C20.4172 8.53398 20.3392 8.72298 20.1972 8.86398L13.0642 15.997C12.9222 16.139 12.7342 16.217 12.5342 16.217Z" fill="white"/>
<path d="M3.92014 22.0008C3.40599 22.0008 2.92351 21.8009 2.56103 21.4375C1.81356 20.6876 1.81522 19.4701 2.56436 18.7226L5.43758 15.8544C4.24512 14.1503 4.20929 12.9062 4.20929 12.7646C4.20929 12.4196 4.48928 12.1396 4.83427 12.1396C5.17759 12.1396 5.45757 12.4187 5.45924 12.7621C5.45924 12.7654 5.49841 13.6687 6.3392 14.9545L6.37754 14.9161C6.74335 14.5503 6.95251 14.0437 6.95168 13.5262V12.7679C6.95168 12.6029 7.01834 12.4421 7.13501 12.3262L15.718 3.74326C15.8546 3.60577 16.0238 3.49994 16.2088 3.43744L20.3278 2.065C20.457 2.02167 20.5928 2 20.7303 2C20.8686 2 21.0044 2.02167 21.1344 2.06583C21.7986 2.28832 22.1586 3.00996 21.9352 3.67493L20.5728 7.79143C20.5086 7.97975 20.4028 8.15058 20.2653 8.28724L11.6823 16.8694C11.564 16.9877 11.4073 17.0527 11.2407 17.0527H10.4832C9.96239 17.0527 9.45658 17.2619 9.09243 17.6269L9.05576 17.6635C10.339 18.5002 11.2373 18.541 11.2465 18.541C11.5857 18.546 11.8631 18.8285 11.8598 19.171C11.8573 19.5126 11.5773 19.7909 11.2357 19.7909C11.0932 19.7909 9.85406 19.7509 8.1533 18.5652L5.27675 21.4409C4.91426 21.8017 4.43262 22.0008 3.92014 22.0008ZM3.44682 19.6076C3.18517 19.8684 3.18517 20.2934 3.44599 20.5551C3.57265 20.6817 3.74098 20.7517 3.92014 20.7517C4.0993 20.7517 4.26679 20.6826 4.39345 20.5567L7.16834 17.7827C7.00251 17.6352 6.83918 17.481 6.68086 17.3227C6.52336 17.1652 6.37004 17.0036 6.22254 16.8386L3.44682 19.6076ZM7.10751 15.9536C7.2525 16.1178 7.40499 16.2802 7.56249 16.4377C7.72248 16.5969 7.88664 16.7502 8.0533 16.8969L8.20746 16.7427C8.80494 16.1453 9.63324 15.8019 10.4799 15.8019H10.9807L19.3803 7.40228L20.7494 3.27828C20.7528 3.26745 20.7461 3.25328 20.7369 3.24995L20.7303 3.24912C20.7278 3.24912 20.7253 3.24912 20.7236 3.24995L16.6071 4.62156L8.20163 13.027V13.5254C8.2033 14.372 7.86081 15.202 7.26083 15.8011L7.10751 15.9536Z" fill="white"/>
</svg>
