<svg xmlns="http://www.w3.org/2000/svg" width="24" height="24" fill="none"><path fill="#B5C1CE" d="M14.479 16.752c-.2 0-.4-.05-.577-.143L12 15.615l-1.904.995a1.241 1.241 0 0 1-1.295-.09 1.225 1.225 0 0 1-.497-1.203l.364-2.112-1.546-1.5a1.229 1.229 0 0 1 .686-2.094l2.134-.308.953-1.922a1.234 1.234 0 0 1 1.665-.543c.237.12.425.308.544.544l.952 1.922 2.135.308c.463.067.844.384.994.828.147.448.024.945-.311 1.268l-1.545 1.498.364 2.11a1.229 1.229 0 0 1-1.214 1.436Zm-4.662-4.523c.29.28.423.686.355 1.084l-.297 1.719 1.55-.81a1.247 1.247 0 0 1 1.152.002l1.547.809-.296-1.717a1.228 1.228 0 0 1 .356-1.087l1.249-1.211-1.727-.25a1.232 1.232 0 0 1-.928-.668L12 8.529l-.776 1.566a1.24 1.24 0 0 1-.933.673l-1.724.249 1.25 1.212Z"/><path fill="#B5C1CE" d="M18 15.702a.75.75 0 0 1 0-1.5c1.854 0 2.52-.687 2.804-1.544-.18.03-.365.044-.554.044h-.75a.75.75 0 0 1 0-1.5h.75c1.57 0 2.047-1.861 2.191-3H16.5a.75.75 0 0 1 0-1.5h6.75a.75.75 0 0 1 .75.75c0 1.322-.395 3.22-1.499 4.327-.105 1.122-.52 3.923-4.501 3.923ZM6 15.702c-3.981 0-4.396-2.801-4.501-3.923C.395 10.674 0 8.774 0 7.452a.75.75 0 0 1 .75-.75H7.5a.75.75 0 0 1 0 1.5H1.559c.144 1.139.621 3 2.191 3h.75a.75.75 0 0 1 0 1.5h-.75c-.189 0-.375-.015-.555-.044.285.857.95 1.544 2.805 1.544a.75.75 0 0 1 0 1.5Z"/></svg>