<svg className="icon-cmdabl" width="24" height="24" viewBox="0 0 24 24" fill="none" xmlns="http://www.w3.org/2000/svg">
<path d="M14.4788 16.7519C14.2798 16.7519 14.0798 16.7029 13.9018 16.6089L11.9998 15.6149L10.0958 16.6099C9.91881 16.7029 9.71981 16.7519 9.52081 16.7519C9.26181 16.7519 9.01281 16.6719 8.80081 16.5199C8.42081 16.2529 8.22481 15.7799 8.30381 15.3169L8.66781 13.2049L7.12181 11.7059C6.78681 11.3829 6.66481 10.8869 6.81081 10.4439C6.96081 9.99586 7.34281 9.67686 7.80781 9.61086L9.94181 9.30286C9.94181 9.30286 10.8938 7.38286 10.8948 7.38086C11.1078 6.96286 11.5308 6.70386 12.0008 6.70386C12.1938 6.70386 12.3868 6.74986 12.5598 6.83786C12.7968 6.95786 12.9848 7.14586 13.1038 7.38186L14.0558 9.30386L16.1908 9.61186C16.6538 9.67886 17.0348 9.99586 17.1848 10.4399C17.3318 10.8879 17.2088 11.3849 16.8738 11.7079L15.3288 13.2059L15.6928 15.3169C15.7728 15.7809 15.5748 16.2549 15.1908 16.5249C14.9858 16.6729 14.7378 16.7519 14.4788 16.7519ZM9.81681 12.2289C10.1068 12.5099 10.2398 12.9149 10.1718 13.3129L9.87481 15.0319L11.4248 14.2219C11.6008 14.1299 11.7998 14.0809 11.9998 14.0809C12.1998 14.0809 12.3998 14.1299 12.5768 14.2239L14.1238 15.0329L13.8278 13.3159C13.7608 12.9149 13.8938 12.5089 14.1838 12.2289L15.4328 11.0179L13.7058 10.7689C13.3058 10.7119 12.9588 10.4619 12.7778 10.0999L11.9998 8.52886L11.2238 10.0949C11.0408 10.4599 10.6918 10.7109 10.2908 10.7679L8.56681 11.0169L9.81681 12.2289Z" fill="white"/>
<path d="M18 15.7019C17.586 15.7019 17.25 15.3659 17.25 14.9519C17.25 14.5379 17.586 14.2019 18 14.2019C19.854 14.2019 20.52 13.5149 20.804 12.6579C20.624 12.6879 20.439 12.7019 20.25 12.7019H19.5C19.086 12.7019 18.75 12.3659 18.75 11.9519C18.75 11.5379 19.086 11.2019 19.5 11.2019H20.25C21.82 11.2019 22.297 9.3409 22.441 8.2019H16.5C16.086 8.2019 15.75 7.8659 15.75 7.4519C15.75 7.0379 16.086 6.7019 16.5 6.7019H23.25C23.664 6.7019 24 7.0379 24 7.4519C24 8.7739 23.605 10.6729 22.501 11.7789C22.396 12.9009 21.981 15.7019 18 15.7019Z" fill="white"/>
<path d="M6 15.7019C2.019 15.7019 1.604 12.9009 1.499 11.7789C0.395 10.6739 0 8.7739 0 7.4519C0 7.0379 0.336 6.7019 0.75 6.7019H7.5C7.914 6.7019 8.25 7.0379 8.25 7.4519C8.25 7.8659 7.914 8.2019 7.5 8.2019H1.559C1.703 9.3409 2.18 11.2019 3.75 11.2019H4.5C4.914 11.2019 5.25 11.5379 5.25 11.9519C5.25 12.3649 4.914 12.7019 4.5 12.7019H3.75C3.561 12.7019 3.375 12.6869 3.195 12.6579C3.48 13.5149 4.145 14.2019 6 14.2019C6.414 14.2019 6.75 14.5379 6.75 14.9519C6.75 15.3659 6.414 15.7019 6 15.7019Z" fill="white"/>
</svg>
