<svg className="icon-flag" width="32" height="32" viewBox="0 0 32 32" fill="none" xmlns="http://www.w3.org/2000/svg">
<g clip-path="url(#clip0_448_11054)">
<path d="M22.5 32C22.2333 32 21.9813 31.896 21.7933 31.7067L0.793333 10.7067C0.604 10.5187 0.5 10.2667 0.5 10C0.5 9.73333 0.604 9.48133 0.793333 9.29333C0.981333 9.104 1.23333 9 1.5 9C1.76667 9 2.01867 9.104 2.20667 9.29333L2.5 9.58667L10.208 1.87867C10.7733 1.312 11.5267 1.00133 12.3293 1.00133C13.132 1.00133 13.884 1.31333 14.4507 1.87867L16.3293 3.75733L19.7933 0.293333C19.9813 0.104 20.2333 0 20.5 0C20.7667 0 21.0187 0.104 21.2067 0.293333L31.2067 10.2933C31.396 10.4813 31.5 10.7333 31.5 11C31.5 11.2667 31.396 11.5187 31.2067 11.7067L23.1227 19.7907C22.5573 20.3573 21.8027 20.668 21.0013 20.668C20.2 20.668 19.4467 20.3573 18.8813 19.792L17.0013 17.912L13.9147 20.9987L23.208 30.292C23.5973 30.6813 23.5973 31.316 23.208 31.7067C23.0187 31.896 22.7667 32 22.5 32ZM12.5 19.5853L20.9147 11.172L13.036 3.292C12.8467 3.104 12.596 3 12.328 3C12.06 3 11.8093 3.104 11.6213 3.292L3.91467 11L12.5 19.5853ZM20.2933 18.3773C20.4827 18.5653 20.7333 18.6693 21.0013 18.6693C21.2347 18.6693 21.4547 18.5907 21.632 18.4467C20.7987 17.3493 20.3307 16.0027 20.2893 14.6253L18.4147 16.5L20.2933 18.3773ZM23.2467 11.5653C23.22 11.6293 23.184 11.696 23.1413 11.7547C22.02 13.3147 22.0133 15.4467 23.068 17.0187L29.0867 11L20.5013 2.41467L17.744 5.172L23.036 10.4653C23.0467 10.476 23.0573 10.4867 23.0667 10.4987C23.1347 10.5693 23.2 10.668 23.2467 10.7787C23.3013 10.916 23.324 11.0307 23.3267 11.1507C23.3267 11.2893 23.3067 11.4027 23.2667 11.512C23.26 11.5307 23.2533 11.5507 23.2467 11.5653Z" fill="black"/>
</g>
<defs>
<clipPath id="clip0_448_11054">
<rect width="32" height="32" fill="white"/>
</clipPath>
</defs>
</svg>
