<svg xmlns="http://www.w3.org/2000/svg" width="32" height="32" fill="none"><g clip-path="url(#a)"><path fill="#727880" d="M22.5 32a.99.99 0 0 1-.707-.293l-21-21A.99.99 0 0 1 .5 10a.99.99 0 0 1 .293-.707A.99.99 0 0 1 1.5 9a.99.99 0 0 1 .707.293l.293.294 7.708-7.708A2.974 2.974 0 0 1 12.329 1c.803 0 1.555.312 2.122.878l1.878 1.878L19.793.293A.99.99 0 0 1 20.5 0a.99.99 0 0 1 .707.293l10 10A.99.99 0 0 1 31.5 11a.99.99 0 0 1-.293.707l-8.084 8.084a2.977 2.977 0 0 1-2.122.877c-.801 0-1.554-.31-2.12-.876l-1.88-1.88-3.086 3.087 9.293 9.293A1.003 1.003 0 0 1 22.5 32Zm-10-12.415 8.415-8.413-7.879-7.88A.998.998 0 0 0 12.328 3a.992.992 0 0 0-.707.292L3.915 11l8.585 8.585Zm7.793-1.208c.19.188.44.292.708.292a.994.994 0 0 0 .631-.222 6.668 6.668 0 0 1-1.343-3.822L18.415 16.5l1.878 1.877Zm2.954-6.812a.949.949 0 0 1-.106.19c-1.121 1.56-1.128 3.692-.073 5.264L29.087 11 20.5 2.415l-2.757 2.757 5.292 5.293c.01.011.021.022.03.034.069.07.134.169.18.28.055.137.078.252.08.372 0 .138-.02.252-.06.361-.006.019-.013.039-.02.053Z"/></g><defs><clipPath id="a"><path fill="#fff" d="M0 0h32v32H0z"/></clipPath></defs></svg>