<svg width="32" height="32" viewBox="0 0 32 32" fill="none" xmlns="http://www.w3.org/2000/svg">
<g clip-path="url(#clip0_505_10875)">
<path d="M18 23C16.3453 23 15 21.6547 15 20V15H14C13.448 15 13 14.552 13 14C13 13.448 13.448 13 14 13H15C16.1027 13 17 13.8973 17 15V20C17 20.552 17.448 21 18 21H19C19.552 21 20 21.448 20 22C20 22.552 19.552 23 19 23H18Z" fill="black"/>
<path d="M15.5 11C16.3284 11 17 10.3284 17 9.5C17 8.67157 16.3284 8 15.5 8C14.6716 8 14 8.67157 14 9.5C14 10.3284 14.6716 11 15.5 11Z" fill="black"/>
<path d="M16 32C7.17733 32 0 24.8227 0 16C0 7.17733 7.17733 0 16 0C24.8227 0 32 7.17733 32 16C32 24.8227 24.8227 32 16 32ZM16 2C8.28 2 2 8.28 2 16C2 23.72 8.28 30 16 30C23.72 30 30 23.72 30 16C30 8.28 23.72 2 16 2Z" fill="black"/>
</g>
<defs>
<clipPath id="clip0_505_10875">
<rect width="32" height="32" fill="white"/>
</clipPath>
</defs>
</svg>
