<svg xmlns="http://www.w3.org/2000/svg" width="32" height="32" fill="none"><g clip-path="url(#a)"><path fill="#727880" d="M1.007 32a1.001 1.001 0 0 1-.708-1.707L18 12.595l-3.49-.978a2.046 2.046 0 0 1-.246-3.868l3.861-1.518-.033-4.184a1.897 1.897 0 0 1 .494-1.383A1.982 1.982 0 0 1 21.53.64l2.346 2.345 3.99-1.457c.229-.072.44-.104.653-.104a2.06 2.06 0 0 1 1.98 2.67l-.021.06-1.457 3.975 2.378 2.377c.779.722.821 1.971.08 2.772a1.988 1.988 0 0 1-1.564.632l-4.135-.032-1.508 3.844a2.052 2.052 0 0 1-2.678 1.127 2.059 2.059 0 0 1-1.2-1.373l-.976-3.47L1.715 31.707a.993.993 0 0 1-.708.293Zm19.838-20.27c.015.031.027.063.035.095l1.444 5.128c.008.028.017.043.032.048l.013.002c.022 0 .04-.008.049-.027l1.752-4.467a.99.99 0 0 1 .925-.634l4.881.038-2.819-2.82a1.002 1.002 0 0 1-.232-1.05l1.665-4.547c0-.01 0-.02-.003-.03-.01-.031-.04-.046-.064-.046l-4.559 1.663a.999.999 0 0 1-1.05-.23L20.08 2.016l.053 4.887c.003.41-.252.788-.633.939l-4.485 1.761c.002 0-.008.012-.012.025-.006.023.011.054.033.06l5.15 1.442c.024.006.06.02.088.032.018.006.035.014.054.022.121.056.216.12.296.2.08.082.145.176.198.291l.024.055Zm9.177.182h.002-.003Z"/></g><defs><clipPath id="a"><path fill="#fff" d="M0 0h32v32H0z"/></clipPath></defs></svg>