<svg width="32" height="32" viewBox="0 0 32 32" fill="none" xmlns="http://www.w3.org/2000/svg">
<g clip-path="url(#clip0_548_11499)">
<path d="M23.1253 8.05861L17.7013 9.73328L13.7533 6.46661C13.6659 6.38681 13.557 6.33439 13.4401 6.31583C13.3232 6.29728 13.2034 6.3134 13.0956 6.36221C12.9877 6.41102 12.8966 6.49037 12.8334 6.59045C12.7702 6.69052 12.7377 6.80693 12.7399 6.92528L12.8986 12.7093L7.97728 15.4279C7.87435 15.4923 7.79198 15.5847 7.73988 15.6943C7.68779 15.804 7.66816 15.9262 7.6833 16.0466C7.69844 16.1671 7.74772 16.2806 7.82533 16.374C7.90294 16.4673 8.00563 16.5364 8.12128 16.5733L13.5026 18.4986L15.4279 23.8799C15.4645 23.9956 15.5335 24.0984 15.6267 24.1761C15.7199 24.2538 15.8334 24.3032 15.9538 24.3183C16.0742 24.3335 16.1964 24.3138 16.306 24.2616C16.4155 24.2095 16.5078 24.127 16.5719 24.0239L19.2919 19.1026L25.0759 19.2613C25.1943 19.2635 25.3107 19.2311 25.4108 19.1679C25.5108 19.1047 25.5902 19.0135 25.639 18.9057C25.6878 18.7978 25.7039 18.6781 25.6854 18.5612C25.6668 18.4443 25.6144 18.3354 25.5346 18.2479L22.2666 14.2986L23.9413 8.87461C23.9714 8.76166 23.9713 8.64276 23.941 8.52986C23.9107 8.41695 23.8512 8.314 23.7685 8.23134C23.6859 8.14867 23.5829 8.0892 23.47 8.05888C23.3571 8.02857 23.2382 8.02847 23.1253 8.05861V8.05861Z" stroke="black" stroke-width="1.5" stroke-linecap="round" stroke-linejoin="round"/>
<path d="M13.5024 18.4973L0.999775 31" stroke="black" stroke-width="1.5" stroke-linecap="round" stroke-linejoin="round"/>
<path d="M8 3H4" stroke="black" stroke-width="1.5" stroke-linecap="round" stroke-linejoin="round"/>
<path d="M6 1V5" stroke="black" stroke-width="1.5" stroke-linecap="round" stroke-linejoin="round"/>
<path d="M29 27H25" stroke="black" stroke-width="1.5" stroke-linecap="round" stroke-linejoin="round"/>
<path d="M27 25V29" stroke="black" stroke-width="1.5" stroke-linecap="round" stroke-linejoin="round"/>
<path d="M20 4V1" stroke="black" stroke-width="1.5" stroke-linecap="round" stroke-linejoin="round"/>
<path d="M31 13H28" stroke="black" stroke-width="1.5" stroke-linecap="round" stroke-linejoin="round"/>
</g>
<defs>
<clipPath id="clip0_548_11499">
<rect width="32" height="32" fill="white" transform="matrix(-1 0 0 1 32 0)"/>
</clipPath>
</defs>
</svg>
