<svg className="icon-magic" width="32" height="32" viewBox="0 0 32 32" fill="none" xmlns="http://www.w3.org/2000/svg">
<g clip-path="url(#clip0_441_10783)">
<path d="M1.00684 32.0001C0.738836 32.0001 0.488169 31.8961 0.298836 31.7068C-0.0904974 31.3174 -0.0904974 30.6828 0.298836 30.2934L18.0002 12.5948L14.5108 11.6174C13.4308 11.3321 12.7802 10.2094 13.0682 9.11743C13.2308 8.50409 13.6775 7.99209 14.2642 7.74943L18.1255 6.23076L18.0922 2.04676C18.0588 1.56009 18.2335 1.05876 18.5855 0.664094C18.9362 0.27076 19.4175 0.0347604 19.9415 9.37502e-05C19.9842 -0.00257292 20.0268 -0.00390625 20.0708 -0.00390625C20.6242 -0.00390625 21.1548 0.23076 21.5295 0.63876L23.8762 2.98409L27.8655 1.52676C28.0948 1.45476 28.3068 1.42276 28.5188 1.42276C29.4348 1.42276 30.2295 2.00676 30.4988 2.87609C30.6215 3.27476 30.6215 3.69476 30.4988 4.09209C30.4948 4.10409 30.4828 4.14143 30.4775 4.15209L29.0215 8.12809L31.3988 10.5054C32.1775 11.2268 32.2202 12.4761 31.4788 13.2774C31.1055 13.6801 30.5762 13.9121 30.0255 13.9121C29.9882 13.9121 29.9522 13.9108 29.9148 13.9094L25.7802 13.8774L24.2722 17.7214C23.9495 18.5028 23.2042 19.0028 22.3708 19.0028C22.1028 19.0028 21.8415 18.9508 21.5935 18.8481C21.0042 18.6041 20.5548 18.0921 20.3935 17.4748L19.4175 14.0054L1.71484 31.7068C1.5255 31.8961 1.27484 32.0001 1.00684 32.0001ZM20.8455 11.7308C20.8602 11.7614 20.8722 11.7934 20.8802 11.8254L22.3242 16.9534C22.3322 16.9814 22.3415 16.9961 22.3562 17.0014C22.3602 17.0014 22.3642 17.0028 22.3695 17.0028C22.3908 17.0028 22.4095 16.9948 22.4175 16.9761L24.1695 12.5094C24.3202 12.1241 24.6842 11.8748 25.0948 11.8748L29.9762 11.9134L27.1575 9.09343C26.8828 8.81876 26.7922 8.40676 26.9255 8.04276L28.5895 3.49609C28.5908 3.48676 28.5895 3.47609 28.5868 3.46543C28.5775 3.43476 28.5468 3.42009 28.5228 3.42009L23.9642 5.08276C23.8548 5.12276 23.7388 5.14409 23.6215 5.14409C23.3548 5.14409 23.1028 5.04009 22.9148 4.85209C22.9148 4.85209 20.0828 2.02143 20.0788 2.01743L20.1322 6.90409C20.1348 7.31476 19.8802 7.69209 19.4988 7.84276L15.0135 9.60409C15.0162 9.60409 15.0055 9.61609 15.0015 9.62943C14.9962 9.65209 15.0135 9.68276 15.0348 9.68809L20.1855 11.1308C20.2095 11.1374 20.2455 11.1508 20.2735 11.1628C20.2908 11.1694 20.3082 11.1774 20.3268 11.1854C20.4482 11.2414 20.5428 11.3054 20.6228 11.3854C20.7028 11.4668 20.7682 11.5614 20.8215 11.6761C20.8295 11.6948 20.8375 11.7121 20.8455 11.7308ZM30.0215 11.9121C30.0228 11.9121 30.0242 11.9121 30.0242 11.9121C30.0228 11.9121 30.0228 11.9121 30.0215 11.9121Z" fill="black"/>
</g>
<defs>
<clipPath id="clip0_441_10783">
<rect width="32" height="32" fill="white"/>
</clipPath>
</defs>
</svg>
