<svg xmlns="http://www.w3.org/2000/svg" width="24" height="24" fill="none"><path fill="#B5C1CE" d="m7.75 20.098.382.646-.382-.646Zm9.987-5.903-.382-.646.382.646Zm0-4.503.382-.645-.382.645ZM7.75 3.79l-.382.645.382-.645Zm.382 16.954 9.987-5.903-.764-1.291-9.987 5.903.764 1.291Zm9.987-11.696L8.132 3.143l-.764 1.291 9.987 5.904.764-1.291Zm0 5.793c2.175-1.285 2.175-4.508 0-5.793l-.764 1.29c1.193.706 1.193 2.507 0 3.212l.764 1.291Zm-10.75 4.612c-1.133.67-2.619-.15-2.619-1.605h-1.5c0 2.526 2.673 4.202 4.882 2.896l-.764-1.29Zm.763-16.309c-2.21-1.306-4.882.37-4.882 2.897h1.5c0-1.455 1.486-2.275 2.618-1.606l.764-1.29ZM3.25 6.04v11.807h1.5V6.04h-1.5Z"/></svg>